<svg width="360" height="740" viewBox="0 0 360 740" fill="none" xmlns="http://www.w3.org/2000/svg">
<g clip-path="url(#clip0_1946_10067)">
<rect width="360" height="740" fill="#1E1E1E"/>
<g clip-path="url(#clip1_1946_10067)">
<path fill-rule="evenodd" clip-rule="evenodd" d="M170.328 363.544C165.316 358.321 164.457 350.749 168.409 346.63L189.69 324.457C193.643 320.339 200.911 321.234 205.923 326.456C210.935 331.679 211.794 339.251 207.842 343.37L186.561 365.543C182.608 369.661 175.34 368.766 170.328 363.544Z" fill="url(#paint0_linear_1946_10067)"/>
<g filter="url(#filter0_d_1946_10067)">
<path d="M175.784 338.767C176.393 338.163 177.351 338.163 177.959 338.767L182.394 343.177C182.634 343.415 182.941 343.569 183.27 343.615L189.351 344.472C190.185 344.589 190.782 345.368 190.707 346.24L190.157 352.595C190.127 352.939 190.203 353.284 190.373 353.581L193.52 359.058C193.952 359.809 193.739 360.781 193.037 361.263L187.915 364.778C187.638 364.968 187.426 365.245 187.309 365.569L185.153 371.542C184.857 372.362 183.994 372.794 183.194 372.524L177.358 370.552C177.042 370.445 176.701 370.445 176.385 370.552L170.549 372.524C169.749 372.794 168.886 372.362 168.59 371.542L166.434 365.569C166.317 365.245 166.105 364.968 165.828 364.778L160.707 361.263C160.004 360.781 159.791 359.809 160.223 359.058L163.37 353.581C163.54 353.284 163.616 352.939 163.586 352.595L163.036 346.24C162.961 345.368 163.558 344.589 164.392 344.472L170.473 343.615C170.802 343.569 171.109 343.415 171.349 343.177L175.784 338.767Z" fill="#FA7F64"/>
<path fill-rule="evenodd" clip-rule="evenodd" d="M190.291 351.041L190.157 352.595C190.127 352.939 190.203 353.284 190.373 353.581L193.52 359.058C193.952 359.81 193.739 360.781 193.037 361.263L187.915 364.778C187.638 364.968 187.426 365.245 187.309 365.569L185.153 371.543C184.857 372.362 183.994 372.794 183.194 372.524L177.358 370.552C177.042 370.445 176.701 370.445 176.385 370.552L170.549 372.524C169.749 372.794 168.886 372.362 168.59 371.543L166.434 365.569C166.317 365.245 166.105 364.968 165.828 364.778L160.707 361.263C160.004 360.781 159.791 359.81 160.223 359.058L163.37 353.581C163.54 353.284 163.616 352.939 163.586 352.595L163.57 352.409C164.369 352.176 165.229 352.17 166.154 352.442C170.328 353.671 173.945 352.747 177.684 351.792C181.515 350.813 185.474 349.802 190.291 351.041Z" fill="#F8664C"/>
<path fill-rule="evenodd" clip-rule="evenodd" d="M193.197 358.495L193.52 359.058C193.952 359.809 193.739 360.781 193.037 361.263L187.915 364.778C187.638 364.968 187.426 365.245 187.309 365.568L185.153 371.542C184.857 372.362 183.994 372.794 183.194 372.523L177.358 370.552C177.042 370.445 176.701 370.445 176.385 370.552L170.549 372.523C169.749 372.794 168.886 372.362 168.59 371.542L166.434 365.568C166.317 365.245 166.105 364.968 165.828 364.778L160.707 361.263C160.004 360.781 159.791 359.809 160.223 359.058L160.797 358.059C162.009 357.341 163.273 356.765 164.57 356.386C169.152 355.046 172.462 355.852 176.201 356.762C179.993 357.686 184.226 358.717 190.676 357.725C191.467 357.603 192.33 357.904 193.197 358.495Z" fill="#F54730"/>
</g>
</g>
<path d="M164.519 405.272V402.944H161.183V400.976H164.519V398.816H161.183V396.848H164.519V395H166.895V405.272H164.519ZM160.127 395.36V404.528H148.439V395.36H150.767V397.904H157.823V395.36H160.127ZM150.767 402.608H157.823V399.8H150.767V402.608ZM151.799 413.384H167.399V415.232H149.447V409.928H164.543V408.248H149.399V406.4H166.895V411.68H151.799V413.384ZM191.709 403.304V405.584H188.829V415.496H186.453V395H188.829V403.304H191.709ZM178.725 397.928C178.701 400.328 178.485 402.512 178.101 404.432L184.677 412.688L182.805 414.104L177.405 407.12C176.013 411.368 173.613 413.912 170.517 414.272V411.92C174.141 411.248 176.253 405.536 176.325 397.928H170.997V395.744H183.885V397.928H178.725ZM200.035 402.776C198.643 404.696 196.315 406.016 193.363 406.352V404.216C196.459 403.784 198.547 401.816 198.979 399.224H193.771V397.16H198.955V394.616H201.379V397.16H206.539V399.224H201.403C201.331 399.824 201.211 400.4 200.995 400.952L207.235 404.432L206.179 406.28L200.035 402.776ZM209.779 395H212.155V415.496H209.779V395ZM192.955 408.176H201.331C204.091 408.176 206.587 407.96 208.051 407.432V409.496C206.563 410.024 204.115 410.264 201.283 410.264H201.235V415.496H198.859V410.264H192.955V408.176Z" fill="white"/>
<circle opacity="0.5" cx="331" cy="232" r="5" fill="#54CEB7"/>
<circle opacity="0.2" cx="37" cy="692" r="5" fill="#2791DE"/>
<circle opacity="0.2" cy="307" r="4" fill="#FFC54C"/>
<circle opacity="0.4" cx="350.5" cy="350.5" r="4.5" fill="#FF8850"/>
<circle opacity="0.7" cx="130.5" cy="165.5" r="2.5" fill="#FF8850"/>
<circle opacity="0.7" cx="93.5" cy="24.5" r="1.5" fill="#FF8850"/>
<circle opacity="0.4" cx="82.5" cy="342.5" r="3.5" fill="#6153FF"/>
<circle opacity="0.4" cx="296" cy="69" r="3" fill="#6153FF"/>
<circle opacity="0.5" cx="323" cy="665" r="3" fill="#AFAFAF"/>
<circle opacity="0.5" cx="129" cy="529" r="3" fill="#AFAFAF"/>
</g>
<defs>
<filter id="filter0_d_1946_10067" x="147" y="325.314" width="59.7433" height="60.2903" filterUnits="userSpaceOnUse" color-interpolation-filters="sRGB">
<feFlood flood-opacity="0" result="BackgroundImageFix"/>
<feColorMatrix in="SourceAlpha" type="matrix" values="0 0 0 0 0 0 0 0 0 0 0 0 0 0 0 0 0 0 127 0" result="hardAlpha"/>
<feOffset/>
<feGaussianBlur stdDeviation="6.5"/>
<feComposite in2="hardAlpha" operator="out"/>
<feColorMatrix type="matrix" values="0 0 0 0 0.475 0 0 0 0 0.11664 0 0 0 0 0.0692708 0 0 0 0.12 0"/>
<feBlend mode="normal" in2="BackgroundImageFix" result="effect1_dropShadow_1946_10067"/>
<feBlend mode="normal" in="SourceGraphic" in2="effect1_dropShadow_1946_10067" result="shape"/>
</filter>
<linearGradient id="paint0_linear_1946_10067" x1="177.552" y1="356.017" x2="199.706" y2="334.754" gradientUnits="userSpaceOnUse">
<stop stop-color="#911B03"/>
<stop offset="1" stop-color="#FFC5B9" stop-opacity="0"/>
</linearGradient>
<clipPath id="clip0_1946_10067">
<rect width="360" height="740" fill="white"/>
</clipPath>
<clipPath id="clip1_1946_10067">
<rect width="55.9986" height="56" fill="white" transform="translate(152.501 322)"/>
</clipPath>
</defs>
</svg>
